<?xml version="1.0" encoding="utf-8"?>
<!-- Generator: Adobe Illustrator 27.2.0, SVG Export Plug-In . SVG Version: 6.00 Build 0)  -->
<svg version="1.1" id="Слой_1" xmlns="http://www.w3.org/2000/svg" xmlns:xlink="http://www.w3.org/1999/xlink" x="0px" y="0px"
	 viewBox="0 0 36 36" style="enable-background:new 0 0 36 36;" xml:space="preserve">
<style type="text/css">
	.st0{fill:#754B25;}
	.st1{fill:#EDEDED;}
	.st2{fill:#DB7F91;}
	.st3{fill:#D8CBD0;}
	.st4{fill:#A3A3A3;}
	.st5{fill:#292F33;}
	.st6{fill:#5DADEC;}
</style>
<g>
	<path class="st0" d="M35.7,19.9C35.4,16.7,35,15,34,13c0,0,3-9,1-12.7C34.3-0.9,27.6,2,25,4c0,0-4-1-7-1s-7,1-7,1
		C8.4,2,1.7-0.9,1,0.3C-1,4,2,13,2,13c-1,2-1.4,3.7-1.7,6.9C-0.1,23.5,0.7,26.4,1,27c0.4,0.7,2.4,3,5,5c4,3,10,4,12,4s8-1,12-4
		c2.6-2,4.6-4.3,5-5C35.3,26.4,36.1,23.5,35.7,19.9z"/>
	<path class="st1" d="M34,13c0,0,0.2-0.5,0.4-1.3c-1.9,0.5-3.8,0.4-5.7-0.2c-6-2.1-10.9-2.1-16.5,1.4c-3.8,2.3-7.5,2.3-10.5,0.8
		c-0.8,1.7-1.1,3.3-1.4,6.2C-0.1,23.5,0.7,26.4,1,27c0.4,0.7,2.4,3,5,5c4,3,10,4,12,4s8-1,12-4c2.6-2,4.6-4.3,5-5
		c0.3-0.6,1.1-3.5,0.7-7.1C35.4,16.7,35,15,34,13z"/>
	<path class="st2" d="M18,19.5c3,0,3,0.5,3,1.5s-1.5,3-3,3s-3-2-3-3S15,19.5,18,19.5z"/>
	<path class="st3" d="M2,3c0.4-1.3,5.6,1,6.6,2C8.6,5,4,8,3,11C3,11,1,6,2,3z M34,3c-0.4-1.3-5.6,1-6.6,2c0,0,4.6,3,5.6,6
		C33,11,35,6,34,3z"/>
	<path class="st0" d="M4.9,5.6C4.9,4.2,11,7,10,8s-2,1.6-3,2.6S4.9,6.6,4.9,5.6z M31.1,5.6C31.1,4.2,25,7,26,8s2,1.6,3,2.6
		S31.1,6.6,31.1,5.6z"/>
	<path class="st4" d="M0.7,25c-0.1,0-0.3-0.1-0.4-0.2c-0.2-0.2-0.1-0.5,0.1-0.7C0.6,24,4.4,21,11,21.5c0.3,0,0.5,0.3,0.5,0.5
		s-0.3,0.5-0.5,0.5C4.7,22,1,24.9,1,24.9C0.9,25,0.8,25,0.7,25z M9.6,20.3c0,0-0.1,0-0.1,0C4.6,18.8,0.7,20,0.6,20
		c-0.3,0.1-0.5-0.1-0.6-0.3c-0.1-0.3,0.1-0.5,0.3-0.6c0.2-0.1,4.3-1.2,9.4,0.3c0.3,0.1,0.4,0.4,0.3,0.6C10,20.2,9.8,20.3,9.6,20.3z
		 M35.3,25c0.1,0,0.3-0.1,0.4-0.2c0.2-0.2,0.1-0.5-0.1-0.7c-0.2-0.1-4-3.1-10.6-2.6c-0.3,0-0.5,0.3-0.5,0.5c0,0.3,0.3,0.5,0.5,0.5
		c6.2-0.5,9.9,2.4,10,2.4C35.1,25,35.2,25,35.3,25z M26.4,20.3c0,0,0.1,0,0.1,0c4.8-1.5,8.7-0.3,8.8-0.3c0.3,0.1,0.5-0.1,0.6-0.3
		c0.1-0.3-0.1-0.5-0.3-0.6c-0.2-0.1-4.3-1.2-9.4,0.3C26,19.4,25.9,19.7,26,20C26,20.2,26.2,20.3,26.4,20.3z"/>
</g>
<path class="st5" d="M25.4,30.6c-0.5-0.8-3.4-5.1-7.4-5.1c-4.2,0-7.3,5-7.4,5.2c-0.1,0.2-0.1,0.5,0.1,0.6c0.1,0.1,0.2,0.1,0.3,0.1
	c0.1,0,0.2,0,0.3-0.1c0,0,2.9-1.9,6.7-1.9c3.8,0,6.7,1.9,6.7,1.9c0.1,0.1,0.2,0.1,0.3,0.1c0.3,0,0.5-0.2,0.5-0.5
	C25.5,30.9,25.5,30.7,25.4,30.6z"/>
<g>
	<ellipse class="st5" cx="12" cy="14.5" rx="2" ry="3.5"/>
	<ellipse class="st5" cx="24" cy="14.5" rx="2" ry="3.5"/>
	<path class="st5" d="M31,14c-0.3,0-0.6-0.1-0.8-0.4C27.6,10.1,24.1,10,24,10c-0.5,0-1-0.5-1-1c0-0.6,0.4-1,1-1
		c0.2,0,4.5,0.1,7.8,4.4c0.3,0.4,0.2,1.1-0.2,1.4C31.4,13.9,31.2,14,31,14z M5,14c-0.2,0-0.4-0.1-0.6-0.2c-0.4-0.3-0.5-1-0.2-1.4
		C7.5,8.1,11.8,8,12,8c0.6,0,1,0.4,1,1c0,0.6-0.4,1-1,1c-0.2,0-3.6,0.1-6.2,3.6C5.6,13.9,5.3,14,5,14z"/>
</g>
<path class="st6" d="M15,31c0,2.8-2.2,5-5,5s-5-2.2-5-5s4-13,5-13S15,28.2,15,31z"/>
</svg>
