<?xml version="1.0" encoding="utf-8"?>
<!-- Generator: Adobe Illustrator 27.2.0, SVG Export Plug-In . SVG Version: 6.00 Build 0)  -->
<svg version="1.1" id="Слой_1" xmlns="http://www.w3.org/2000/svg" xmlns:xlink="http://www.w3.org/1999/xlink" x="0px" y="0px"
	 viewBox="0 0 36 36" style="enable-background:new 0 0 36 36;" xml:space="preserve">
<style type="text/css">
	.st0{fill:#754B25;}
	.st1{clip-path:url(#SVGID_00000105385994968639295830000011428345596774776980_);fill:#EDEDED;}
	.st2{fill:#D8CBD0;}
	.st3{fill:#A3A3A3;}
	.st4{fill:#DB7F91;}
	.st5{fill:#292F33;}
	.st6{fill:#F5F8FA;}
	.st7{fill:#C9C9C9;}
</style>
<g>
	<path class="st0" d="M33.3,17.1c0.7,0,1.3,0.1,2,0.2c-0.3-1.8-0.7-3.1-1.4-4.5c0,0,3-9,1-12.7c-0.7-1.2-7.4,1.7-10,3.7c0,0-4-1-7-1
		s-7,1-7,1c-2.6-2-9.3-4.9-10-3.7c-2,3.7,1,12.7,1,12.7c-0.7,1.4-1.1,2.6-1.4,4.2c0.1,0,0.1,0,0.2,0c10.2,0,13.6,10.3,10.5,17.5
		c2.8,1,5.5,1.3,6.7,1.3c1,0,3-0.2,5.2-0.9C19.5,27.8,23,17.1,33.3,17.1z"/>
	<g>
		<defs>
			<path id="SVGID_1_" d="M33.9,12.8c0,0,0.2-0.5,0.4-1.3c-1.9,0.5-3.8,0.4-5.7-0.2c-6-2.1-10.9-2.1-16.5,1.4
				C8.3,15,4.6,14.9,1.5,13.5c-0.8,1.7-1.1,3.3-1.4,6.2c-0.4,3.6,0.4,6.4,0.7,7.1c0.4,0.7,2.4,3,5,5c4,3,10,4,12,4s8-1,12-4
				c2.6-2,4.6-4.3,5-5c0.3-0.6,1.1-3.5,0.7-7.1C35.3,16.4,34.9,14.8,33.9,12.8z"/>
		</defs>
		<clipPath id="SVGID_00000116205658202153421020000002375707714737348287_">
			<use xlink:href="#SVGID_1_"  style="overflow:visible;"/>
		</clipPath>
		<path style="clip-path:url(#SVGID_00000116205658202153421020000002375707714737348287_);fill:#EDEDED;" d="M34.8,0.1
			c-0.7-1.2-7.4,1.7-10,3.7c0,0-4-1-7-1s-7,1-7,1c-2.6-2-9.3-4.9-10-3.7c-2,3.7,1,12.7,1,12.7c-0.9,1.8-1.3,3.3-1.6,6
			c0.4-0.1,0.8-0.2,1.3-0.2c5,0,7.9,8.1,7.4,14.9c3.5,1.6,7.5,2.2,9,2.2c1.5,0,5.5-0.6,9.1-2.3c-0.5-6.8,2.4-14.9,7.4-14.9
			c0.5,0,0.9,0.1,1.2,0.1c-0.3-2.7-0.7-4.2-1.6-6C33.8,12.8,36.8,3.8,34.8,0.1z"/>
	</g>
	<path class="st2" d="M1.8,2.8c0.4-1.3,5.6,1,6.6,2c0,0-4.6,3-5.6,6C2.8,10.8,0.8,5.8,1.8,2.8z M33.8,2.8c-0.4-1.3-5.6,1-6.6,2
		c0,0,4.6,3,5.6,6C32.8,10.8,34.8,5.8,33.8,2.8z"/>
	<path class="st0" d="M4.8,5.4c0-1.4,6.1,1.4,5.1,2.4s-2,1.6-3,2.6S4.8,6.4,4.8,5.4z M30.9,5.4c0-1.4-6.1,1.4-5.1,2.4s2,1.6,3,2.6
		S30.9,6.4,30.9,5.4z"/>
	<path class="st3" d="M0.5,24.8c-0.1,0-0.3-0.1-0.4-0.2C0,24.3,0,24,0.2,23.9c0.2-0.1,4-3.1,10.6-2.6c0.3,0,0.5,0.3,0.5,0.5
		s-0.3,0.5-0.5,0.5c-6.2-0.5-9.9,2.4-10,2.4C0.8,24.7,0.7,24.8,0.5,24.8z M9.4,20.1c0,0-0.1,0-0.1,0c-4.8-1.5-8.7-0.3-8.8-0.3
		c-0.3,0.1-0.5-0.1-0.6-0.3c-0.1-0.3,0.1-0.5,0.3-0.6c0.2-0.1,4.3-1.2,9.4,0.3c0.3,0.1,0.4,0.4,0.3,0.6C9.8,20,9.6,20.1,9.4,20.1z
		 M35.1,24.8c0.1,0,0.3-0.1,0.4-0.2c0.2-0.2,0.1-0.5-0.1-0.7c-0.2-0.1-4-3.1-10.6-2.6c-0.3,0-0.5,0.3-0.5,0.5c0,0.3,0.3,0.5,0.5,0.5
		c6.2-0.5,9.9,2.4,10,2.4C34.9,24.7,35,24.8,35.1,24.8z M26.3,20.1c0,0,0.1,0,0.1,0c4.8-1.5,8.7-0.3,8.8-0.3
		c0.3,0.1,0.5-0.1,0.6-0.3c0.1-0.3-0.1-0.5-0.3-0.6c-0.2-0.1-4.3-1.2-9.4,0.3c-0.3,0.1-0.4,0.4-0.3,0.6C25.9,20,26.1,20.1,26.3,20.1
		z"/>
</g>
<path class="st4" d="M18,15c3,0,3,0.5,3,1.5s-1.5,3-3,3s-3-2-3-3S15,15,18,15z"/>
<path class="st5" d="M18,21c-2.2,0-4,1.8-4,4v6c0,2.2,1.8,4,4,4s4-1.8,4-4v-6C22,22.8,20.2,21,18,21z"/>
<path class="st6" d="M7.3,10.7c-0.9,3.2,0.1,6.3,2.4,7c2.2,0.7,4.8-1.4,5.8-4.5c0.9-3.2-0.1-6.3-2.4-7C10.9,5.5,8.3,7.5,7.3,10.7z
	 M28.7,10.7c0.9,3.2-0.1,6.3-2.4,7c-2.2,0.7-4.8-1.4-5.8-4.5c-0.9-3.2,0.1-6.3,2.4-7C25.1,5.5,27.7,7.5,28.7,10.7z"/>
<path class="st7" d="M35.8,19.2c-0.3-0.1-0.7-0.2-1.2-0.2c-4.6,0-7.1,10-5.9,17h6.5C33.3,29,36.8,21.9,35.8,19.2z M1.4,19
	c-0.5,0-0.8,0.1-1.2,0.2l0,0C-0.8,21.9,2.7,29,0.8,36h6.5C8.5,29,6,19,1.4,19z"/>
</svg>
